<svg xmlns="http://www.w3.org/2000/svg" viewBox="0 0 80 120" fill="none">
  <path
    fill="#93BEEA"
    d="M40 3
       C30 18 22 36 18 54
       L12 78
       C10 88 14 98 24 104
       L40 116
       C52 108 58 96 56 82
       L50 54
       C46 36 48 18 40 3Z"
  />
  <path
    d="M18 54 L6 68 M22 66 L10 80 M26 78 L16 92
       M50 54 L62 66 M46 68 L58 80 M42 78 L52 90"
    stroke="#7AAED6"
    stroke-width="2"
    stroke-linecap="round"
    fill="none"
    opacity="0.5"
  />
  <path
    d="M40 10 C40 46 40 82 40 112"
    stroke="#7AAED6"
    stroke-width="1.5"
    stroke-linecap="round"
    fill="none"
  />
</svg>
